<svg version="1.2" xmlns="http://www.w3.org/2000/svg" viewBox="0 0 64 64" width="64" height="64"><style>.a{fill:#111}.b{fill:#333}.c{fill:#f0f0f0}.d{fill:#800}</style><path fill-rule="evenodd" class="a" d="m64 0v64h-64v-64z"/><path class="b" d="m13 50v4c0 1.7-1.3 3-3 3h-2c-1.7 0-3-1.3-3-3v-4zm9 0v4c0 1.7-1.3 3-3 3h-2c-1.7 0-3-1.3-3-3v-4zm9 0v4c0 1.7-1.3 3-3 3h-2c-1.7 0-3-1.3-3-3v-4zm9 0v4c0 1.7-1.3 3-3 3h-2c-1.7 0-3-1.3-3-3v-4zm9 0v4c0 1.7-1.3 3-3 3h-2c-1.7 0-3-1.3-3-3v-4zm9 0v4c0 1.7-1.3 3-3 3h-2c-1.7 0-3-1.3-3-3v-4zm9 0v4c0 1.7-1.3 3-3 3h-2c-1.7 0-3-1.3-3-3v-4zm-63 0v4c0 1.7-1.3 3-3 3h-2c-1.7 0-3-1.3-3-3v-4z"/><path class="c" d="m4 6v45c0 1.7-1.3 3-3 3h-2c-1.7 0-3-1.3-3-3v-45zm9 0v45c0 1.7-1.3 3-3 3h-2c-1.7 0-3-1.3-3-3v-45zm9 0v45c0 1.7-1.3 3-3 3h-2c-1.7 0-3-1.3-3-3v-45zm9 0v45c0 1.7-1.3 3-3 3h-2c-1.7 0-3-1.3-3-3v-45zm9 0v45c0 1.7-1.3 3-3 3h-2c-1.7 0-3-1.3-3-3v-45zm9 0v45c0 1.7-1.3 3-3 3h-2c-1.7 0-3-1.3-3-3v-45zm9 0v45c0 1.7-1.3 3-3 3h-2c-1.7 0-3-1.3-3-3v-45zm9 0v45c0 1.7-1.3 3-3 3h-2c-1.7 0-3-1.3-3-3v-45z"/><path class="b" d="m8 32v3c0 1.1-0.9 2-2 2h-1c-1.1 0-2-0.9-2-2v-3zm16 0v3c0 1.1-0.9 2-2 2h-1c-1.1 0-2-0.9-2-2v-3zm10 0v3c0 1.1-0.9 2-2 2h-1c-1.1 0-2-0.9-2-2v-3zm10 0v3c0 1.1-0.9 2-2 2h-1c-1.1 0-2-0.9-2-2v-3zm16 0v3c0 1.1-0.9 2-2 2h-1c-1.1 0-2-0.9-2-2v-3z"/><path class="a" d="m24 6v27c0 1.1-0.9 2-2 2h-1c-1.1 0-2-0.9-2-2v-27zm10 0v27c0 1.1-0.9 2-2 2h-1c-1.1 0-2-0.9-2-2v-27zm10 0v27c0 1.1-0.9 2-2 2h-1c-1.1 0-2-0.9-2-2v-27zm16 0v27c0 1.1-0.9 2-2 2h-1c-1.1 0-2-0.9-2-2v-27zm-52 0v27c0 1.1-0.9 2-2 2h-1c-1.1 0-2-0.9-2-2v-27z"/><path fill-rule="evenodd" class="d" d="m64 5v1h-64v-1z"/></svg>