<svg version="1.2" xmlns="http://www.w3.org/2000/svg" viewBox="0 0 64 64" width="64" height="64"><style>.a{fill:#111}.b{fill:#333}</style><path fill-rule="evenodd" class="a" d="M64 0v64H0V0z"/><path class="b" d="M-.8 51v4c0 1.7-2.4 3-5.4 3h-3.5c-2.9 0-5.3-1.3-5.3-3v-4zm15.9 0v4c0 1.7-2.3 3-5.3 3H6.3c-3 0-5.4-1.3-5.4-3v-4zm16 0v4c0 1.7-2.4 3-5.3 3h-3.6c-2.9 0-5.3-1.3-5.3-3v-4zm16 0v4c0 1.7-2.4 3-5.3 3h-3.6c-2.9 0-5.3-1.3-5.3-3v-4zm16 0v4c0 1.7-2.4 3-5.4 3h-3.5c-2.9 0-5.3-1.3-5.3-3v-4zM79 51v4c0 1.7-2.3 3-5.3 3h-3.5c-3 0-5.4-1.3-5.4-3v-4zm16 0v4c0 1.7-2.4 3-5.3 3h-3.6c-2.9 0-5.3-1.3-5.3-3v-4zm-111.8 0v4c0 1.7-2.4 3-5.3 3h-3.6c-2.9 0-5.3-1.3-5.3-3v-4z"/><path d="M-16.8 7v45c0 1.7-2.4 3-5.3 3h-3.6c-2.9 0-5.3-1.3-5.3-3V7zm16 0v45c0 1.7-2.4 3-5.4 3h-3.5c-2.9 0-5.3-1.3-5.3-3V7zm15.9 0v45c0 1.7-2.3 3-5.3 3H6.3c-3 0-5.4-1.3-5.4-3V7zm16 0v45c0 1.7-2.4 3-5.3 3h-3.6c-2.9 0-5.3-1.3-5.3-3V7zm16 0v45c0 1.7-2.4 3-5.3 3h-3.6c-2.9 0-5.3-1.3-5.3-3V7zm16 0v45c0 1.7-2.4 3-5.4 3h-3.5c-2.9 0-5.3-1.3-5.3-3V7zM79 7v45c0 1.7-2.3 3-5.3 3h-3.5c-3 0-5.4-1.3-5.4-3V7zm16 0v45c0 1.7-2.4 3-5.3 3h-3.6c-2.9 0-5.3-1.3-5.3-3V7z" style="fill:#f0f0f0"/><path class="b" d="M-9.7 33v3c0 1.1-1.6 2-3.6 2H-15c-2 0-3.6-.9-3.6-2v-3zm28.4 0v3c0 1.1-1.6 2-3.5 2h-1.8c-2 0-3.6-.9-3.6-2v-3zm17.8 0v3c0 1.1-1.6 2-3.6 2h-1.7c-2 0-3.6-.9-3.6-2v-3zm17.7 0v3c0 1.1-1.6 2-3.5 2h-1.8c-1.9 0-3.5-.9-3.5-2v-3zm28.4 0v3c0 1.1-1.6 2-3.6 2h-1.7c-2 0-3.6-.9-3.6-2v-3z"/><path class="a" d="M18.7 7v27c0 1.1-1.6 2-3.6 2h-1.7c-2 0-3.6-.9-3.6-2V7zm17.8 0v27c0 1.1-1.6 2-3.6 2h-1.8c-1.9 0-3.5-.9-3.5-2V7zm17.7 0v27c0 1.1-1.6 2-3.5 2h-1.8c-1.9 0-3.5-.9-3.5-2V7zm28.4 0v27c0 1.1-1.6 2-3.6 2h-1.8c-1.9 0-3.5-.9-3.5-2V7zM-9.7 7v27c0 1.1-1.6 2-3.5 2H-15c-2 0-3.6-.9-3.6-2V7z"/><path fill-rule="evenodd" d="M64 4v3H0V4z" style="fill:#800"/></svg>